P1
# This is an example bitmap of the peace symbol
11 11
0 0 0 1 1 1 1 1 0 0 0
0 0 1 0 0 1 0 0 1 0 0
0 1 0 0 0 1 0 0 0 1 0
1 0 0 0 0 1 0 0 0 0 1
1 0 0 0 0 1 0 0 0 0 1
1 0 0 0 0 1 0 0 0 0 1
1 0 0 0 1 1 1 0 0 0 1
1 0 0 1 0 1 0 1 0 0 1
0 1 1 0 0 1 0 0 1 1 0
0 0 1 0 0 1 0 0 1 0 0
0 0 0 1 1 1 1 1 0 0 0

